<?xml version="1.0" encoding="utf-8"?>
<!-- Generator: Adobe Illustrator 21.0.2, SVG Export Plug-In . SVG Version: 6.00 Build 0)  -->
<svg version="1.1" id="Layer_1" xmlns="http://www.w3.org/2000/svg" xmlns:xlink="http://www.w3.org/1999/xlink" x="0px" y="0px"
	 viewBox="0 0 419.9 75.9" style="enable-background:new 0 0 419.9 75.9;" xml:space="preserve">
<style type="text/css">
	.st0{fill:#FFFFFF;}
</style>
<g>
	<path class="st0" d="M32.8,36.5c11.9-0.8,18.7-6.9,18.7-15.3c0-9.7-8.3-15.6-23.7-15.6H1.6V7H9v63.1H1.6v1.3h29.5
		c13.9,0,22.4-7.8,22.4-18C53.5,43.8,46.3,37.8,32.8,36.5z M19,7.1h5.3C35.7,7.1,42,13.2,42,22.3c0,9.6-6,13.6-18.9,13.6
		c-1.3,0-2.7,0-4.1-0.1V7.1z M23.2,70.1L23.2,70.1l-4.3,0.1V37.1c0.9,0,1.8-0.1,2.6-0.1c14.1,0,21.3,5.4,21.3,16.2
		C42.8,65,36.4,70.1,23.2,70.1z"/>
	<path class="st0" d="M77.2,30.7c-5,0-9.6,2.1-13.4,6.1c-4,4.1-6.1,9.4-6.1,14.9c0,5.4,2.1,10.7,6.1,14.9c3.8,4,8.4,6,13.4,6
		c5.1,0,9.6-2,13.3-6c4-4.2,6.1-9.4,6.1-14.9C96.6,40.4,87.6,30.7,77.2,30.7z M87.6,57.7c0,9.1-3.2,13.5-10.4,13.5
		s-10.5-4.4-10.5-13.5v-12c0-9.1,3.3-13.5,10.5-13.5s10.4,4.3,10.4,13.5V57.7z"/>
	<path class="st0" d="M140.9,66.2c-1.9,2.5-3.3,3.8-5.1,3.8c-2,0-3-2-3-6.3v-20c0-4.5-0.3-6.8-4.1-9.6c-3.2-2.3-6.8-3.5-11.2-3.5
		c-9,0-14.9,5.1-14.9,10.7c0,2.8,1.8,4.7,4.6,4.7c2.6,0,4.3-1.8,4.3-4.7c0-2.8-2.8-3.6-2.8-4.4c0-1.5,3.2-4.9,8.6-4.9
		c5.6,0,7.7,2.3,7.7,7.2v10.1c-0.2,0-0.3,0-0.5,0c-16.2,0-24.8,5-24.8,13.4c0,5.6,4.8,10,11.5,10c6.9,0,11.6-2.2,14.2-6.6
		c0.9,4,3.8,6.3,8,6.3c3.3,0,5.8-1.7,8.6-5.2L140.9,66.2z M125,64.3c-2,4-5.8,6.3-9.6,6.3c-4.4,0-7-3.2-7-8.9c0-7.5,4.4-11,13.6-11
		c0.9,0,1.9,0,3,0.1V64.3z"/>
	<path class="st0" d="M165.3,30.7c-4.7,0-8.2,3.4-11,10.4V30.7c-2,0.8-5.1,1.2-9.3,1.2h-4.8v1.4h5.7v36.8h-5.7v1.4h19.6v-1.4h-5.5
		V46.8c2-9.3,6-14.4,9.6-14.4c0.4,0,0.8,0.1,1.2,0.2c-1.2,1.4-1.9,2.6-1.9,3.9c0,2.3,2.1,4.2,4.5,4.2c2.4,0,4-1.8,4-4.8
		S169.2,30.7,165.3,30.7z"/>
	<path class="st0" d="M211.2,70.1V3.2c-3,1.7-5.9,2.4-9.3,2.4h-4.8V7h5.7v33c-2.8-6-7.6-9.2-13.3-9.2c-9.4,0-18.1,9.1-18.1,20.8
		c0,12.7,8,21.1,19,21.1c5.1,0,9.1-2.6,12.5-7.8v6.6H217v-0.1v-1.3H211.2z M202.8,61.3c-2.7,6.5-7.1,9.9-12.9,9.9
		c-6.9,0-9.4-4.4-9.4-14V45.8c0-8.8,3.2-13.3,9.6-13.3c5.4,0,10.1,3.9,12.7,11V61.3z"/>
	<path class="st0" d="M272.2,70c-5.7,0-5.2-6.1-6.3-16.4c-1.2-10.7-5.2-15.1-16.8-16.8c12.3-1.2,18.7-6.6,18.7-15.6
		c0-10.1-7.7-15.6-23-15.6H217V7h7.5v63.1H217v1.3h24.7V70h-7V37.8h3.3c11.3,0,15.4,2.4,16.6,11.1c1.1,7.6,0.9,14,3.8,18.5
		c2.1,3.2,5,4.7,9.1,4.7c3,0,5.9-0.5,8.9-1.5l-0.6-1.3C274.6,69.8,273.5,70,272.2,70z M234.8,36.5V7.1h6.8c11.1,0,16.1,4.1,16.1,15
		c0,9.8-6.4,14.4-19.6,14.4H234.8z"/>
	<path class="st0" d="M325.8,30.7c-5,0-9.6,2.1-13.4,6.1c-1.3,1.4-2.5,2.9-3.4,4.6c-3.4-6.3-9.8-10.6-16.8-10.6
		c-5,0-9.6,2.1-13.4,6.1c-4,4.2-6.1,9.5-6.1,14.9c0,5.5,2.1,10.8,6.1,14.9c3.8,4,8.4,6,13.4,6c5.1,0,9.6-2,13.3-6
		c1.4-1.5,2.5-3,3.4-4.6c0.9,1.7,2,3.2,3.4,4.6c3.8,4,8.4,6,13.4,6c5.1,0,9.6-2,13.3-6c4-4.3,6.1-9.5,6.1-14.9
		C345.2,40.3,336.2,30.7,325.8,30.7z M302.7,57.7c0,9.2-3.2,13.5-10.4,13.5c-7.2,0-10.5-4.4-10.5-13.5v-12c0-9.2,3.3-13.5,10.5-13.5
		s10.4,4.4,10.4,13.5V57.7z M336.2,57.7c0,9.2-3.2,13.5-10.4,13.5c-7.2,0-10.5-4.4-10.5-13.5v-12c0-9.2,3.3-13.5,10.5-13.5
		s10.4,4.4,10.4,13.5V57.7z"/>
	<path class="st0" d="M412.5,70.1v-27c0-7.7-4.9-12.4-12.7-12.4c-6,0-10.6,3.1-14.5,9.4c-1-5.8-5.7-9.4-12.4-9.4
		c-5.9,0-10.4,2.9-14.1,8.9v-8.9c-2,0.8-5.1,1.2-9.3,1.2h-4.8v1.4h5.7v36.8h-5.7v1.4h19.6v-1.4h-5.5V42.3c3.6-6.6,7.8-9.8,13-9.8
		c4.5,0,5.5,2.4,5.5,7.7v29.9h-5.6v1.4h19.7v-1.4h-5.8V42.3c3.9-6.6,7.9-9.8,13.1-9.8c4.5,0,5.5,2.4,5.5,7.7v29.9h-5.6v1.4h19.7
		v-1.4H412.5z"/>
</g>
</svg>
